<?xml version="1.0" encoding="UTF-8"?>
<svg xmlns="http://www.w3.org/2000/svg" xmlns:xlink="http://www.w3.org/1999/xlink" width="160px" height="65px" viewBox="0 0 158 65" version="1.1">
<g id="surface1">
<path style=" stroke:none;fill-rule:nonzero;fill:rgb(0%,0%,0%);fill-opacity:1;" d="M 11.238281 0.265625 C 10.9375 0.402344 8.445312 2.640625 5.6875 5.28125 C 1.628906 9.160156 0.597656 10.332031 0.332031 11.402344 C 0.101562 12.269531 0 19.527344 0.0664062 33.167969 C 0.167969 50.757812 0.234375 53.765625 0.664062 54.332031 C 0.929688 54.703125 3.359375 57.140625 6.050781 59.75 L 10.90625 64.53125 L 64.503906 64.53125 L 69.425781 59.785156 C 72.117188 57.140625 74.542969 54.703125 74.8125 54.332031 C 75.242188 53.765625 75.308594 50.722656 75.410156 32.765625 C 75.476562 13.339844 75.441406 11.804688 74.910156 10.734375 C 74.578125 10.097656 72.085938 7.457031 69.359375 4.882812 L 64.4375 0.167969 L 38.105469 0.101562 C 23.640625 0.0664062 11.539062 0.132812 11.238281 0.265625 Z M 54.992188 12.707031 L 57.6875 15.347656 L 57.785156 32.132812 L 57.886719 48.882812 L 55.0625 51.792969 L 52.234375 54.667969 L 23.242188 54.667969 L 20.414062 51.792969 L 17.589844 48.882812 L 17.6875 32.132812 L 17.789062 15.347656 L 20.480469 12.707031 L 23.175781 10.03125 L 52.300781 10.03125 Z M 54.992188 12.707031 "/>
<path style=" stroke:none;fill-rule:nonzero;fill:rgb(0%,0%,0%);fill-opacity:1;" d="M 101.507812 0.335938 C 101.109375 0.5 100.546875 0.96875 100.28125 1.40625 C 100.011719 1.839844 95.058594 15.378906 89.308594 31.496094 C 82.257812 51.191406 78.800781 61.289062 78.800781 62.15625 C 78.800781 64.632812 78.46875 64.53125 85.78125 64.53125 C 90.636719 64.53125 92.433594 64.429688 92.664062 64.128906 C 92.863281 63.898438 96.488281 54.066406 100.746094 42.332031 C 104.96875 30.5625 109.355469 18.488281 110.453125 15.480469 L 112.449219 10.03125 L 121.660156 10.03125 L 122.289062 11.804688 C 122.65625 12.773438 127.046875 24.777344 132 38.453125 C 136.988281 52.160156 141.175781 63.628906 141.375 63.964844 C 141.640625 64.5 142.304688 64.53125 149.722656 64.464844 L 157.765625 64.363281 L 157.867188 62.527344 C 157.933594 60.855469 157.003906 58.078125 147.292969 30.960938 C 141.441406 14.578125 136.421875 0.96875 136.15625 0.703125 C 135.691406 0.234375 133.527344 0.167969 118.933594 0.101562 C 109.6875 0.0664062 101.910156 0.167969 101.507812 0.335938 Z M 101.507812 0.335938 "/>
</g>
</svg>
