<?xml version="1.0" standalone="no"?>
<!DOCTYPE svg PUBLIC "-//W3C//DTD SVG 20010904//EN"
 "http://www.w3.org/TR/2001/REC-SVG-20010904/DTD/svg10.dtd">
<svg version="1.0" xmlns="http://www.w3.org/2000/svg"
 width="475.000000pt" height="194.000000pt" viewBox="0 0 475.000000 194.000000"
 preserveAspectRatio="xMidYMid meet">

<g transform="translate(0.000000,194.000000) scale(0.100000,-0.100000)"
fill="#000000" stroke="none">
<path d="M338 1932 c-9 -4 -84 -71 -167 -150 -122 -116 -153 -151 -161 -183
-7 -26 -10 -243 -8 -651 3 -526 5 -616 18 -633 8 -11 81 -84 162 -162 l146
-143 806 0 806 0 148 142 c81 79 154 152 162 163 13 17 15 108 18 645 2 581 1
627 -15 659 -10 19 -85 98 -167 175 l-148 141 -792 2 c-435 1 -799 -1 -808 -5z
m1316 -372 l81 -79 3 -502 3 -501 -85 -87 -85 -86 -436 0 -436 0 -85 86 -85
87 3 501 3 502 81 79 81 80 438 0 438 0 81 -80z"/>
<path d="M3053 1930 c-12 -5 -29 -19 -37 -32 -8 -13 -157 -418 -330 -900 -212
-589 -316 -891 -316 -917 0 -74 -10 -71 210 -71 146 0 200 3 207 12 6 7 115
301 243 652 127 352 259 713 292 803 l60 163 138 0 139 0 19 -53 c11 -29 143
-388 292 -797 150 -410 276 -753 282 -763 8 -16 28 -17 251 -15 l242 3 3 55
c2 50 -26 133 -318 944 -176 490 -327 897 -335 905 -14 14 -79 16 -518 18
-278 1 -512 -2 -524 -7z"/>
</g>
</svg>
