<?xml version="1.0" encoding="UTF-8"?>
<svg xmlns="http://www.w3.org/2000/svg" xmlns:xlink="http://www.w3.org/1999/xlink" width="98px" height="40px" viewBox="0 0 98 40" version="1.1">
<g id="surface1">
<path style=" stroke:none;fill-rule:nonzero;fill:rgb(0%,0%,0%);fill-opacity:1;" d="M 7.496094 0.164062 C 7.3125 0.246094 5.785156 1.625 4.097656 3.25 C 1.609375 5.636719 0.980469 6.359375 0.816406 7.015625 C 0.675781 7.550781 0.613281 12.015625 0.652344 20.410156 C 0.714844 31.234375 0.757812 33.085938 1.019531 33.433594 C 1.183594 33.664062 2.671875 35.164062 4.320312 36.769531 L 7.292969 39.710938 L 40.121094 39.710938 L 43.136719 36.789062 C 44.785156 35.164062 46.269531 33.664062 46.433594 33.433594 C 46.699219 33.085938 46.738281 31.214844 46.800781 20.164062 C 46.84375 8.210938 46.820312 7.265625 46.496094 6.605469 C 46.292969 6.214844 44.765625 4.589844 43.09375 3.003906 L 40.082031 0.101562 L 23.953125 0.0625 C 15.09375 0.0390625 7.679688 0.0820312 7.496094 0.164062 Z M 34.296875 7.820312 L 35.945312 9.445312 L 36.007812 19.773438 L 36.066406 30.082031 L 34.339844 31.871094 L 32.605469 33.640625 L 14.847656 33.640625 L 13.117188 31.871094 L 11.386719 30.082031 L 11.445312 19.773438 L 11.507812 9.445312 L 13.15625 7.820312 L 14.808594 6.171875 L 32.648438 6.171875 Z M 34.296875 7.820312 "/>
<path style=" stroke:none;fill-rule:nonzero;fill:rgb(0%,0%,0%);fill-opacity:1;" d="M 62.785156 0.207031 C 62.542969 0.308594 62.199219 0.597656 62.035156 0.867188 C 61.871094 1.132812 58.835938 9.464844 55.3125 19.382812 C 50.996094 31.503906 48.878906 37.714844 48.878906 38.25 C 48.878906 39.773438 48.675781 39.710938 53.152344 39.710938 C 56.128906 39.710938 57.226562 39.648438 57.371094 39.464844 C 57.492188 39.320312 59.710938 33.273438 62.320312 26.050781 C 64.90625 18.808594 67.59375 11.378906 68.265625 9.527344 L 69.488281 6.171875 L 75.128906 6.171875 L 75.515625 7.265625 C 75.738281 7.859375 78.429688 15.246094 81.460938 23.664062 C 84.519531 32.097656 87.082031 39.15625 87.203125 39.363281 C 87.367188 39.691406 87.773438 39.710938 92.316406 39.671875 L 97.242188 39.609375 L 97.304688 38.476562 C 97.347656 37.449219 96.777344 35.742188 90.828125 19.054688 C 87.246094 8.972656 84.171875 0.597656 84.007812 0.433594 C 83.722656 0.144531 82.398438 0.101562 73.460938 0.0625 C 67.796875 0.0390625 63.03125 0.101562 62.785156 0.207031 Z M 62.785156 0.207031 "/>
</g>
</svg>
